<svg width="38" height="38" viewBox="0 0 38 38" fill="none" xmlns="http://www.w3.org/2000/svg">
<path d="M30.9364 20.7387C31.4616 20.1834 31.4372 19.3074 30.8819 18.7822C30.3266 18.257 29.4506 18.2814 28.9254 18.8367L19.782 28.5041V5.02572C19.782 4.26139 19.1624 3.64178 18.3981 3.64178C17.6338 3.64178 17.0142 4.26139 17.0142 5.02572V28.5082L7.86681 18.8367C7.34161 18.2814 6.46569 18.257 5.91039 18.7822C5.35509 19.3074 5.3307 20.1834 5.8559 20.7387L17.0555 32.58C17.3457 32.8869 17.715 33.0714 18.1003 33.1336C18.1962 33.1546 18.2959 33.1657 18.3981 33.1657C18.5044 33.1657 18.6079 33.1538 18.7073 33.1311C19.087 33.0665 19.4503 32.8828 19.7367 32.58L30.9364 20.7387Z" fill="white"/>
</svg>
