<svg width="28" height="28" viewBox="0 0 28 28" fill="none" xmlns="http://www.w3.org/2000/svg">
<path d="M17.1581 6.65829C17.6137 6.20268 17.6137 5.46399 17.1581 5.00838L14.2415 2.09171C13.7859 1.6361 13.0472 1.6361 12.5916 2.09171C12.1359 2.54732 12.1359 3.28601 12.5916 3.74162L13.5283 4.67838C8.59283 4.92406 4.66669 9.00353 4.66669 14C4.66669 16.2371 5.45525 18.2932 6.7685 19.9009C7.17612 20.3999 7.91109 20.474 8.4101 20.0664C8.90911 19.6588 8.98319 18.9238 8.57557 18.4248C7.59019 17.2185 7.00002 15.6797 7.00002 14C7.00002 10.3025 9.86681 7.27456 13.4989 7.01766L12.5916 7.92504C12.1359 8.38065 12.1359 9.11935 12.5916 9.57496C13.0472 10.0306 13.7859 10.0306 14.2415 9.57496L17.1581 6.65829ZM19.1204 7.53206C18.6531 7.97569 18.6339 8.71413 19.0776 9.18142C20.2701 10.4375 21 12.1323 21 14C21 17.6975 18.1332 20.7254 14.5011 20.9823L15.4085 20.075C15.8641 19.6193 15.8641 18.8807 15.4085 18.425C14.9529 17.9694 14.2142 17.9694 13.7586 18.425L10.8419 21.3417C10.3863 21.7973 10.3863 22.536 10.8419 22.9916L13.7586 25.9083C14.2142 26.3639 14.9529 26.3639 15.4085 25.9083C15.8641 25.4527 15.8641 24.714 15.4085 24.2584L14.4717 23.3216C19.4072 23.0759 23.3334 18.9965 23.3334 14C23.3334 11.5109 22.3575 9.24729 20.7698 7.57491C20.3262 7.10762 19.5877 7.08844 19.1204 7.53206Z" fill="black"/>
</svg>
