<svg width="28" height="28" viewBox="0 0 28 28" fill="none" xmlns="http://www.w3.org/2000/svg">
<path d="M22.9806 2.50638C23.2026 2.67148 23.3333 2.93179 23.3333 3.20838V18.9584C23.3333 18.9895 23.3317 19.0202 23.3285 19.0505C23.3317 19.1166 23.3333 19.1831 23.3333 19.25C23.3333 21.5052 21.5052 23.3334 19.25 23.3334C16.9948 23.3334 15.1667 21.5052 15.1667 19.25C15.1667 16.9949 16.9948 15.1667 19.25 15.1667C20.1176 15.1667 20.9219 15.4373 21.5833 15.8986V9.05107L11.6667 12.0261V21.2917C11.6667 21.3228 11.665 21.3535 11.6619 21.3838C11.6651 21.4499 11.6667 21.5165 11.6667 21.5834C11.6667 23.8385 9.8385 25.6667 7.58333 25.6667C5.32817 25.6667 3.5 23.8385 3.5 21.5834C3.5 19.3282 5.32817 17.5 7.58333 17.5C8.4509 17.5 9.25526 17.7706 9.91667 18.2319V6.70838C9.91667 6.32197 10.1701 5.98132 10.5402 5.87028L22.2069 2.37028C22.4718 2.29081 22.7587 2.34127 22.9806 2.50638ZM11.6667 10.199L21.5833 7.22402V4.38441L11.6667 7.35941V10.199ZM7.58333 19.25C6.29467 19.25 5.25 20.2947 5.25 21.5834C5.25 22.872 6.29467 23.9167 7.58333 23.9167C8.872 23.9167 9.91667 22.872 9.91667 21.5834C9.91667 20.2947 8.872 19.25 7.58333 19.25ZM16.9167 19.25C16.9167 20.5387 17.9613 21.5834 19.25 21.5834C20.5387 21.5834 21.5833 20.5387 21.5833 19.25C21.5833 17.9614 20.5387 16.9167 19.25 16.9167C17.9613 16.9167 16.9167 17.9614 16.9167 19.25Z" fill="black"/>
</svg>
