<svg width="28" height="28" viewBox="0 0 28 28" fill="none" xmlns="http://www.w3.org/2000/svg">
<path d="M15.4 14C16.9464 14 18.2 15.2537 18.2 16.8V18.9C18.2 21.7763 15.2767 23.8 10.5 23.8C5.72325 23.8 2.79999 21.7763 2.79999 18.9V16.8C2.79999 15.2537 4.05359 14 5.59999 14H15.4ZM15.4 15.4H5.59999C4.82679 15.4 4.19999 16.0268 4.19999 16.8V18.9C4.19999 20.87 6.41006 22.4 10.5 22.4C14.5899 22.4 16.8 20.87 16.8 18.9V16.8C16.8 16.0268 16.1732 15.4 15.4 15.4ZM22.4 14C23.9464 14 25.2 15.2537 25.2 16.8V17.5C25.2 20.4241 23.0044 22.4 18.9 22.4C18.7022 22.4 18.5088 22.3955 18.3198 22.3864C18.6113 22.0475 18.8558 21.6826 19.0507 21.2927L19.187 20.9944L19.2413 20.9951C22.3664 20.9037 23.8 19.5431 23.8 17.5V16.8C23.8 16.0268 23.1732 15.4 22.4 15.4L19.3606 15.3988C19.176 14.8771 18.8912 14.4027 18.5294 13.9988L22.4 14ZM10.5 2.80005C13.2062 2.80005 15.4 4.99385 15.4 7.70005C15.4 10.4062 13.2062 12.6 10.5 12.6C7.79379 12.6 5.59999 10.4062 5.59999 7.70005C5.59999 4.99385 7.79379 2.80005 10.5 2.80005ZM20.3 5.60005C22.233 5.60005 23.8 7.16705 23.8 9.10005C23.8 11.033 22.233 12.6 20.3 12.6C18.367 12.6 16.8 11.033 16.8 9.10005C16.8 7.16705 18.367 5.60005 20.3 5.60005ZM10.5 4.20005C8.56699 4.20005 6.99999 5.76705 6.99999 7.70005C6.99999 9.63305 8.56699 11.2 10.5 11.2C12.433 11.2 14 9.63305 14 7.70005C14 5.76705 12.433 4.20005 10.5 4.20005ZM20.3 7.00005C19.1402 7.00005 18.2 7.94025 18.2 9.10005C18.2 10.2598 19.1402 11.2 20.3 11.2C21.4598 11.2 22.4 10.2598 22.4 9.10005C22.4 7.94025 21.4598 7.00005 20.3 7.00005Z" fill="#212121"/>
</svg>
