<svg width="29" height="28" viewBox="0 0 29 28" fill="none" xmlns="http://www.w3.org/2000/svg">
<path d="M22.5283 1.60505C22.255 1.33168 21.8118 1.33168 21.5384 1.60505C21.265 1.87842 21.265 2.32163 21.5384 2.595C23.1274 4.18402 23.9584 6.61396 23.9584 9.10002C23.9584 11.5861 23.1274 14.016 21.5384 15.605C21.265 15.8784 21.265 16.3216 21.5384 16.595C21.8118 16.8684 22.255 16.8684 22.5283 16.595C24.4393 14.684 25.3584 11.864 25.3584 9.10002C25.3584 6.33609 24.4393 3.51603 22.5283 1.60505ZM19.7283 4.40505C19.455 4.13168 19.0118 4.13168 18.7384 4.40505C18.465 4.67842 18.465 5.12163 18.7384 5.395C19.6274 6.28402 20.1084 7.66396 20.1084 9.10002C20.1084 10.5361 19.6274 11.916 18.7384 12.805C18.465 13.0784 18.465 13.5216 18.7384 13.795C19.0118 14.0684 19.455 14.0684 19.7283 13.795C20.9393 12.584 21.5084 10.814 21.5084 9.10002C21.5084 7.38609 20.9393 5.61603 19.7283 4.40505ZM5.93337 9.80002C5.93337 6.70723 8.44057 4.20002 11.5334 4.20002C14.6262 4.20002 17.1334 6.70723 17.1334 9.80002C17.1334 12.8928 14.6262 15.4 11.5334 15.4C8.44057 15.4 5.93337 12.8928 5.93337 9.80002ZM11.5334 5.60002C9.21377 5.60002 7.33337 7.48043 7.33337 9.80002C7.33337 12.1196 9.21377 14 11.5334 14C13.853 14 15.7334 12.1196 15.7334 9.80002C15.7334 7.48043 13.853 5.60002 11.5334 5.60002ZM1.73337 19.6C1.73337 18.0416 2.99778 16.8 4.54559 16.8L18.5334 16.8C20.0797 16.8 21.3334 18.0538 21.3334 19.6C21.3334 21.9677 20.1674 23.7529 18.3444 24.9153C16.5496 26.0596 14.13 26.6 11.5334 26.6C8.93673 26.6 6.51712 26.0596 4.72236 24.9153C2.8993 23.7529 1.73337 21.9677 1.73337 19.6ZM4.54558 18.2C3.76037 18.2 3.13337 18.8254 3.13337 19.6C3.13337 21.4323 4.00454 22.7972 5.47503 23.7348C6.97382 24.6904 9.10422 25.2 11.5334 25.2C13.9625 25.2 16.0929 24.6904 17.5917 23.7348C19.0622 22.7972 19.9334 21.4323 19.9334 19.6C19.9334 18.827 19.3064 18.2 18.5334 18.2L4.54558 18.2Z" fill="#212121"/>
</svg>
